<svg xmlns="http://www.w3.org/2000/svg" style="position: absolute; left: -9999px;"><symbol id="icon-carrot" viewbox="0 0 196.667 180"><path fill="currentColor" d="M68.837 155.178l-4.242-4.242 61.358-61.358L64.595 28.22l4.242-4.242 65.6 65.6z"></symbol><symbol id="icon-ellipse" viewbox="0 0 62 32.667"><circle class="circle-3" fill="currentColor" cx="45" cy="16" r="4"><circle class="circle-2" fill="currentColor" cx="32" cy="16" r="4"><circle fill="currentColor" cx="19" cy="16" r="4"></symbol><symbol id="icon-tab" viewbox="-46.833 -179.5 396.667 338.667"><g fill="currentColor"><path d="M245.73 9.573l54.373 54.372h-316.63v6.982h316.633l-54.375 54.37 4.937 4.937 62.8-62.796-62.8-62.8zM317.265 4.637h6.98v125.597h-6.98z"></g><g fill="currentColor"><path d="M61.988-134.99L7.616-80.618h316.63v6.98H7.613l54.375 54.373-4.936 4.936-62.8-62.796 62.8-62.8zM-16.527-139.926h6.98V-14.33h-6.98z"></g></symbol></svg>