<svg xmlns="http://www.w3.org/2000/svg" style="position: absolute; left: -9999px;"><symbol id="icon-carrot" viewbox="0 0 196.667 180"><path fill="currentColor" d="M68.837 155.178l-4.242-4.242 61.358-61.358L64.595 28.22l4.242-4.242 65.6 65.6z"></symbol><symbol id="icon-ellipse" viewbox="0 0 62 32.667"><circle class="circle-3" fill="currentColor" cx="45" cy="16" r="4"/><circle class="circle-2" fill="currentColor" cx="32" cy="16" r="4"/><circle fill="currentColor" cx="19" cy="16" r="4"/></symbol><symbol id="icon-tab" viewbox="0 0 26 21"><g fill="currentColor"><path d="M18.685 5.58l-.92.92 3.348 3.348H.198v1.3h20.916l-3.35 3.348.92.92 4.918-4.917zM24.502 5.58h1.3v9.796h-1.3z"></g></symbol><symbol id="icon-updown" viewbox="0 0 26 21"><g fill="currentColor"><path d="M7.896 13.284L2.98 8.367l.918-.92 3.998 4 4-4 .917.92zM22.102 13.33l-3.998-3.998-4 3.998-.918-.92 4.918-4.917 4.917 4.917z"></g></symbol></svg>